<svg xmlns="http://www.w3.org/2000/svg" xml:space="preserve" id="Layer_1" x="0" y="0" version="1.1" viewBox="0 0 1000 1000" fill="currentColor"><style>.st0{fill:#101010;}</style><path d="M897.3 296.3c.7 8.9.7 17.8.7 26.6 0 271-206.2 583.2-583.1 583.2-116.1 0-224-33.6-314.8-92.1 16.5 1.9 32.4 2.5 49.5 2.5 92.2.3 181.8-30.5 254.4-87.5-42.8-.8-84.2-14.9-118.6-40.4s-59.9-61.1-73.1-101.8c12.7 1.9 25.4 3.2 38.7 3.2 18.4 0 36.8-2.5 54-7-46.4-9.4-88.2-34.5-118.1-71.2-30-36.7-46.3-82.6-46.2-129.9v-2.5c27.3 15.2 59 24.7 92.6 26-28.1-18.7-51.2-44.1-67.2-73.8-15.9-29.8-24.3-63-24.2-96.8 0-38.1 10.1-73 27.9-103.4 51.5 63.4 115.7 115.2 188.5 152.1 72.8 36.9 152.6 58.2 234.1 62.4-3.2-15.3-5.1-31.1-5.1-47 0-26.9 5.3-53.6 15.6-78.5s25.4-47.5 44.4-66.5 41.6-34.1 66.5-44.4c24.9-10.3 51.5-15.6 78.5-15.6 59 0 112.3 24.7 149.8 64.7 45.9-8.9 89.9-25.6 130.1-49.5-15.3 47.4-47.3 87.5-90.1 113 40.7-4.6 80.5-15.3 118-31.8-28.1 40.9-62.9 76.7-102.8 106z" class="st0"/></svg>