<svg xmlns="http://www.w3.org/2000/svg" xml:space="preserve" id="Layer_1" x="0" y="0" version="1.1" viewBox="0 0 1000 1000" fill="currentColor"><style>.st0{fill:#101010;}</style><path d="M996 295.2c-.6-42-8.4-83.6-23.2-122.9-12.8-33.1-32.5-63.2-57.6-88.4-25.1-25.1-55.2-44.7-88.4-57.6C788 11.8 747 3.9 705.6 3 652.3.6 635.4 0 500 0 364.6 0 347.2 0 294.3 3c-41.4.9-82.4 8.7-121.1 23.3-33.2 12.9-63.3 32.5-88.5 57.6C59.6 109 40 139.2 27.2 172.3 12.6 211.1 4.7 252 3.9 293.4 1.5 346.8.8 363.7.8 499.1s0 152.7 3.1 205.7c.8 41.5 8.6 82.4 23.2 121.2 12.9 33.1 32.5 63.2 57.6 88.4 25.1 25.1 55.3 44.7 88.4 57.6 38.7 15.1 79.6 23.6 121.1 24.9 53.4 2.4 70.3 3.1 205.7 3.1 135.4 0 152.7 0 205.7-3.1 41.4-.8 82.4-8.7 121.2-23.2 33.1-12.9 63.2-32.5 88.4-57.6 25.1-25.1 44.8-55.2 57.6-88.4 14.6-38.8 22.4-79.7 23.2-121.2 2.4-53.3 3.1-70.2 3.1-205.7 0-135.4 0-152.6-3.1-205.6zM499.6 755.1c-141.6 0-256.3-114.7-256.3-256.3 0-141.6 114.7-256.3 256.3-256.3 68 0 133.2 27 181.2 75.1 48.1 48.1 75.1 113.3 75.1 181.2S728.9 632 680.8 680c-48 48.1-113.2 75.1-181.2 75.1zm266.5-462.3c-7.9 0-15.6-1.5-22.9-4.5-7.3-3-13.8-7.4-19.4-13-5.5-5.6-10-12.1-13-19.4-3-7.3-4.5-15-4.5-22.9 0-7.8 1.5-15.6 4.5-22.9 3-7.2 7.4-13.8 13-19.4 5.5-5.5 12.1-9.9 19.4-12.9 7.3-3 15-4.5 22.9-4.5 7.8 0 15.6 1.5 22.9 4.5 7.2 3 13.8 7.4 19.4 12.9 5.5 5.5 9.9 12.1 13 19.4 3 7.2 4.5 15 4.5 22.9-.1 33.1-26.8 59.8-59.8 59.8z" class="st0"/><path d="M499.6 665.3c91.9 0 166.5-74.5 166.5-166.5s-74.5-166.5-166.5-166.5-166.5 74.5-166.5 166.5 74.6 166.5 166.5 166.5z" class="st0"/></svg>