<svg xmlns="http://www.w3.org/2000/svg" xml:space="preserve" id="Layer_1" x="0" y="0" version="1.1" viewBox="0 0 1000 1000" fill="currentColor"><style>.st0{fill:#101010;}</style><path d="M120.2 241.2c66.4 0 120.2-53.8 120.2-120.2S186.6.8 120.2.8 0 54.7 0 121c0 66.4 53.8 120.2 120.2 120.2zm233.7 91.1v666.8h207V669.3c0-87 16.4-171.3 124.2-171.3 106.4 0 107.7 99.5 107.7 176.8v324.3H1000V633.5c0-179.6-38.7-317.7-248.6-317.7-100.8 0-168.4 55.3-196 107.7h-2.8v-91.2H353.9zm-337.4 0h207.4v666.8H16.5V332.3z" class="st0"/></svg>