<svg xmlns="http://www.w3.org/2000/svg" xml:space="preserve" id="Layer_1" x="0" y="0" version="1.1" viewBox="0 0 1000 1000" fill="currentColor"><style>.st0{fill:#101010;}</style><path d="M979.7 260c-5.7-21.1-16.8-40.4-32.3-55.9-15.4-15.5-34.7-26.6-55.8-32.4-78.2-21.5-391.3-21.8-391.3-21.8s-313-.3-391.3 20.2c-21.1 6-40.3 17.3-55.7 32.9-15.5 15.6-26.6 34.8-32.5 56C.2 337.2 0 499.5 0 499.5S-.2 662.6 20.3 740c11.5 42.8 45.2 76.6 88.1 88.2 79 21.5 391.2 21.8 391.2 21.8s313 .3 391.3-20.1c21.1-5.7 40.4-16.9 55.8-32.3 15.5-15.4 26.7-34.7 32.4-55.8 20.7-78.2 20.8-240.4 20.8-240.4s1.1-163.1-20.2-241.4zM400.2 649.8l.2-299.8 260.2 150.1-260.4 149.7z" class="st0"/></svg>