<?xml version="1.0" encoding="utf-8"?>
<!-- Generator: Adobe Illustrator 21.0.2, SVG Export Plug-In . SVG Version: 6.00 Build 0)  -->
<svg version="1.1" id="Layer_1" xmlns="http://www.w3.org/2000/svg" xmlns:xlink="http://www.w3.org/1999/xlink" x="0px" y="0px"
	 viewBox="0 0 194 164.9" style="enable-background:new 0 0 194 164.9;" xml:space="preserve">
<style type="text/css">
	.st0{fill:#FB5757;}
	.st1{fill:#4ACB7E;}
	.st2{fill:#FFA756;}
	.st3{fill:#1E8EF5;}
	.st4{fill:#FFF06D;}
	.st5{fill:#BF5FD9;}
</style>
<rect x="40" class="st0" width="154" height="11"/>
<rect class="st0" width="11.9" height="27.7"/>
<rect y="83" class="st1" width="11.9" height="26.9"/>
<rect x="182" y="83" class="st1" width="12" height="26.9"/>
<rect y="27.7" class="st2" width="11.9" height="27.1"/>
<rect x="182" y="26.8" class="st2" width="12" height="28.2"/>
<rect x="0" y="109.9" class="st3" width="11.9" height="28"/>
<rect x="182" y="109.9" class="st3" width="12" height="28"/>
<rect y="54.9" class="st4" width="11.9" height="28.1"/>
<rect x="182" y="55" class="st4" width="12" height="28"/>
<rect x="182" y="137.9" class="st5" width="12" height="8"/>
<rect x="19.5" class="st0" width="12.4" height="11"/>
<rect x="182" y="2.4" class="st0" width="12" height="24.5"/>
<rect x="182" y="154.1" class="st5" width="12" height="10.8"/>
<polygon class="st5" points="162,152.2 162,154.1 11.9,154.1 11.9,137.9 0,137.9 0,164.9 174,164.9 174,152.2 "/>
</svg>
